<?xml version="1.0" encoding="utf-8"?>
<svg version="1.1" id="sm-icons" xmlns="http://www.w3.org/2000/svg" xmlns:xlink="http://www.w3.org/1999/xlink" x="0px" y="0px"
	 viewBox="0 0 200 400" style="enable-background:new 0 0 200 400;" xml:space="preserve" width="140px" height="280px">
<defs>
  <!-- Instagram -->
  <radialGradient id="rg1" cx="298.56" cy="412.29" r="35.22" gradientUnits="userSpaceOnUse">
    <stop offset="0" stop-color="#ffd776"/>
    <stop offset="0.25" stop-color="#f3a554"/><stop offset="0.38" stop-color="#f15c3c"/>
    <stop offset="0.7" stop-color="#c32f87"/><stop offset="0.95" stop-color="#6765ae"/>
    <stop offset="0.99" stop-color="#5c6cb3"/>
  </radialGradient>
  <!-- Tumblr -->
  <linearGradient id="lg1" x1="305.6" y1="385.45" x2="305.6" y2="407.14" gradientUnits="userSpaceOnUse">
    <stop offset="0" stop-color="#fff"/>
    <stop offset="1" stop-color="#edf0f4"/>
  </linearGradient>
  <!-- YouTube -->
  <linearGradient id="lg2" x1="13.55" y1="15.26" x2="19.68" y2="15.26" gradientUnits="userSpaceOnUse">
    <stop offset="0" stop-color="#e42f28"/>
    <stop offset="1" stop-color="#bf2126"/>
  </linearGradient>
  <!-- Flickr -->
  <linearGradient x1="98%" y1="0%" x2="100%" y2="100%" id="lg3" >
    <stop offset="0.2" stop-color="#e8e8e8"/>
    <stop offset="1" stop-color="#bbb"/>
  </linearGradient>
</defs>
<g><!-- Facebook -->
  <path class="cls-1" d="M319.26,380.33H291.87a2.35,2.35,0,0,0-2.37,2.32v27.51a2.35,2.35,0,0,0,2.37,2.32h27.39a2.35,2.35,0,0,0,2.38-2.32V382.65A2.35,2.35,0,0,0,319.26,380.33Z" style="fill:#3e5b99" transform="translate(-200 -380)"/>
  <path id="f" class="cls-2" d="M311.58,412.5V400.12h4.16l0.61-4.83h-4.77v-3.08c0-1.4.39-2.35,2.39-2.35h2.56v-4.32a34.19,34.19,0,0,0-3.72-.19c-3.68,0-6.22,2.25-6.22,6.38v3.55h-4.16v4.82h4.17V412.5h5Z" style="fill:#fff" transform="translate(-200 -380)"/>
</g>
<g><!-- Twitter -->
  <path class="cls-1" d="M319.72,380.33H292.32a2.35,2.35,0,0,0-2.37,2.32v27.51a2.35,2.35,0,0,0,2.37,2.32h27.39a2.35,2.35,0,0,0,2.38-2.32V382.65A2.35,2.35,0,0,0,319.72,380.33Z" style="fill:#5fa9dd;" transform="translate(-200 -340)"/>
  <path class="cls-2" d="M317.9,389a9.74,9.74,0,0,1-2.8.77,4.89,4.89,0,0,0,2.14-2.7,9.75,9.75,0,0,1-3.09,1.18,4.88,4.88,0,0,0-8.3,4.44,13.83,13.83,0,0,1-10-5.09,4.88,4.88,0,0,0,1.51,6.5,4.85,4.85,0,0,1-2.21-.61v0.06a4.88,4.88,0,0,0,3.91,4.78,4.88,4.88,0,0,1-2.2.08,4.88,4.88,0,0,0,4.55,3.38,9.78,9.78,0,0,1-6.05,2.09,9.92,9.92,0,0,1-1.16-.07,13.86,13.86,0,0,0,21.33-11.67q0-.32,0-0.63A9.9,9.9,0,0,0,317.9,389Z" style="fill:#fff;" transform="translate(-200 -340)"/>
</g>
<g><!-- Instagram -->
  <path class="cls-1" style="fill:url(#rg1);" d="M289.72,382.44v27.51a2.35,2.35,0,0,0,2.37,2.32h27.39a2.35,2.35,0,0,0,2.38-2.32V382.44a2.35,2.35,0,0,0-2.34-2.31H292.06A2.34,2.34,0,0,0,289.72,382.44Z" transform="translate(-200 -300)"/>
  <path class="cls-2" style="fill:#fff;" d="M305.79,386.07c3.3,0,3.69,0,5,.07a6.83,6.83,0,0,1,2.29.43,4.09,4.09,0,0,1,2.34,2.34,6.83,6.83,0,0,1,.43,2.29c0.06,1.3.07,1.69,0.07,5s0,3.69-.07,5a6.83,6.83,0,0,1-.43,2.29,4.09,4.09,0,0,1-2.34,2.34,6.83,6.83,0,0,1-2.29.43c-1.3.06-1.69,0.07-5,.07s-3.69,0-5-.07a6.83,6.83,0,0,1-2.29-.43,4.09,4.09,0,0,1-2.34-2.34,6.83,6.83,0,0,1-.43-2.29c-0.06-1.3-.07-1.69-0.07-5s0-3.69.07-5a6.83,6.83,0,0,1,.43-2.29,4.09,4.09,0,0,1,2.34-2.34,6.83,6.83,0,0,1,2.29-.43c1.3-.06,1.69-0.07,5-0.07m0-2.23c-3.35,0-3.77,0-5.09.07a9.06,9.06,0,0,0-3,.57,6.31,6.31,0,0,0-3.61,3.61,9.06,9.06,0,0,0-.57,3c-0.06,1.32-.07,1.74-0.07,5.09s0,3.77.07,5.09a9.06,9.06,0,0,0,.57,3,6.31,6.31,0,0,0,3.61,3.61,9.06,9.06,0,0,0,3,.57c1.32,0.06,1.74.07,5.09,0.07s3.77,0,5.09-.07a9.06,9.06,0,0,0,3-.57,6.31,6.31,0,0,0,3.61-3.61,9.06,9.06,0,0,0,.57-3c0.06-1.32.07-1.74,0.07-5.09s0-3.77-.07-5.09a9.06,9.06,0,0,0-.57-3,6.31,6.31,0,0,0-3.61-3.61,9.06,9.06,0,0,0-3-.57c-1.32-.06-1.74-0.07-5.09-0.07h0Z" transform="translate(-200 -300)"/>
  <path class="cls-2" style="fill:#fff;" d="M305.79,389.86a6.34,6.34,0,1,0,6.34,6.34A6.34,6.34,0,0,0,305.79,389.86Zm0,10.46a4.12,4.12,0,1,1,4.12-4.12A4.12,4.12,0,0,1,305.79,400.32Z" transform="translate(-200 -300)"/>
  <circle class="cls-2" style="fill:#fff;" cx="22.66" cy="9.48" r="1.48" transform="translate(90 80)"/>
</g>
<g><!-- LinkedIn -->
  <path class="cls-1" style="fill:#007bb6;" d="M319.55,380.32H292.16a2.35,2.35,0,0,0-2.37,2.32v27.51a2.35,2.35,0,0,0,2.37,2.32h27.39a2.35,2.35,0,0,0,2.38-2.32V382.64A2.35,2.35,0,0,0,319.55,380.32Z" transform="translate(-200 -260)"/>
  <path class="cls-2" style="fill:#fff;" d="M294.55,392.37h4.77v15.34h-4.77V392.37Zm2.39-7.63a2.76,2.76,0,1,1-2.77,2.76,2.77,2.77,0,0,1,2.77-2.76" transform="translate(-200 -260)"/>
  <path class="cls-2" style="fill:#fff;" d="M302.32,392.37h4.57v2.1H307a5,5,0,0,1,4.51-2.48c4.83,0,5.72,3.18,5.72,7.31v8.41h-4.77v-7.46c0-1.78,0-4.07-2.48-4.07s-2.86,1.94-2.86,3.94v7.59h-4.76V392.37Z" transform="translate(-200 -260)"/>
</g>
<g><!-- More -->
  <path style="fill:#8f191d;" class="cls-1" d="M319.69,380.36H292.3a2.35,2.35,0,0,0-2.37,2.32v27.51a2.35,2.35,0,0,0,2.37,2.32h27.39a2.35,2.35,0,0,0,2.38-2.32V382.68A2.35,2.35,0,0,0,319.69,380.36Z" transform="translate(-200 -220)"/>
  <polygon style="fill:#fff;" points="24.07 14.07 18.07 14.07 18.07 8.07 14.07 8.07 14.07 14.07 8.07 14.07 8.07 18.07 14.07 18.07 14.07 24.07 18.07 24.07 18.07 18.07 24.07 18.07 24.07 14.07" transform="translate(90 161)"/>
</g>
<g><!-- Pinterest -->
  <path class="cls-1" style="fill:#ee3134;" d="M290,382.44v27.51a2.35,2.35,0,0,0,2.37,2.32h27.39a2.35,2.35,0,0,0,2.38-2.32V382.44a2.35,2.35,0,0,0-2.34-2.31H292.3A2.34,2.34,0,0,0,290,382.44Z" transform="translate(-200 -180)"/>
  <path class="cls-2" style="fill:#fff;" d="M306.73,385.36c-6.78,0-10.2,4.86-10.2,8.91,0,2.45.93,4.64,2.92,5.45a0.49,0.49,0,0,0,.71-0.36c0.07-.25.22-0.88,0.29-1.15a0.69,0.69,0,0,0-.21-0.8,4.11,4.11,0,0,1-.94-2.8,6.76,6.76,0,0,1,7-6.83c3.83,0,5.94,2.34,5.94,5.47,0,4.11-1.82,7.59-4.52,7.59a2.21,2.21,0,0,1-2.25-2.75c0.43-1.81,1.26-3.76,1.26-5.06a1.91,1.91,0,0,0-1.92-2.14c-1.53,0-2.75,1.58-2.75,3.69a5.49,5.49,0,0,0,.46,2.26l-1.84,7.78a16,16,0,0,0,0,5.42,0.19,0.19,0,0,0,.34.08,15.23,15.23,0,0,0,2.58-4.67c0.17-.63,1-3.92,1-3.92a4.09,4.09,0,0,0,3.49,1.78c4.59,0,7.7-4.18,7.7-9.78C315.76,389.3,312.17,385.36,306.73,385.36Z" transform="translate(-200 -180)"/>
</g>
<g><!-- RSS -->
  <path class="cls-1" style="fill:#f58020;" d="M290,382.41v27.51a2.35,2.35,0,0,0,2.37,2.32h27.39a2.35,2.35,0,0,0,2.38-2.32V382.41a2.35,2.35,0,0,0-2.34-2.31H292.32A2.34,2.34,0,0,0,290,382.41Z" transform="translate(-200 -140)"/>
  <path class="cls-2" style="fill:#fff;" d="M295.45,392.63v4.2a10.26,10.26,0,0,1,10.24,10.27h4.22A14.48,14.48,0,0,0,295.45,392.63Z" transform="translate(-200 -140)"/>
  <path class="cls-2" style="fill:#fff;" d="M295.46,385.19v4.2a17.73,17.73,0,0,1,17.69,17.71h4.21A21.94,21.94,0,0,0,295.46,385.19Z" transform="translate(-200 -140)"/>
  <circle class="cls-2" style="fill:#fff;" cx="8.44" cy="24.03" r="3.07" transform="translate(89.5 240.5)"/>
</g>
<g><!-- Tumblr -->
  <path class="cls-1" style="fill:#27475d;" d="M319.42,380.33H292a2.35,2.35,0,0,0-2.37,2.32v27.51a2.35,2.35,0,0,0,2.37,2.32h27.39a2.35,2.35,0,0,0,2.38-2.32V382.65A2.35,2.35,0,0,0,319.42,380.33Z" transform="translate(-200 -100)"/>
  <path class="cls-2" style="fill:url(#lg1)" d="M306.56,385.55v5.11h5.11v3.94h-5.11v5.66a9.64,9.64,0,0,0,.12,2.38,2,2,0,0,0,.84,1,3.2,3.2,0,0,0,1.68.44,6,6,0,0,0,3.34-1.09v3.48a13.26,13.26,0,0,1-2.56.94,11,11,0,0,1-2.48.27,6.77,6.77,0,0,1-2.38-.38,5.81,5.81,0,0,1-2-1.09,4,4,0,0,1-1.14-1.51,6.52,6.52,0,0,1-.32-2.31V394.6h-3v-3.13a7.82,7.82,0,0,0,2.49-1.21,6,6,0,0,0,1.49-1.9,8.54,8.54,0,0,0,.77-2.81h3.14Z" transform="translate(-200 -100)"/>
</g>
<g><!-- YouTube -->
  <path class="cls-1" style="fill:#d92231;" d="M319.83,380.33H292.44a2.35,2.35,0,0,0-2.37,2.32v27.51a2.35,2.35,0,0,0,2.37,2.32h27.39a2.35,2.35,0,0,0,2.38-2.32V382.65A2.35,2.35,0,0,0,319.83,380.33Z" transform="translate(-200 -60)"/>
  <path class="cls-2" style="fill:#f4f4f4;" d="M311.37,403.58H300.51c-5.1,0-5.94-1.9-5.94-5.86v-4.07c0-4.16,0-5.86,5.94-5.86h10.86c5.72,0,5.94,1.47,5.94,5.86v4.07C317.31,402.47,316,403.58,311.37,403.58Z" transform="translate(-200 -60)"/>
  <polygon class="cls-3" style="fill:url(#lg2);" points="13.55 12.06 19.68 15.24 13.55 18.45 13.55 12.06" transform="translate(90 321)"/>
  <polygon class="cls-4" style="fill:#901a1d;" points="18.93 15.64 13.55 12.06 19.68 15.24 18.93 15.64" transform="translate(90 321)"/>
</g>
<g><!-- Flickr -->
  <path fill="url(#lg3)" d="M319.83,380.33H292.44a2.35,2.35,0,0,0-2.37,2.32v27.51a2.35,2.35,0,0,0,2.37,2.32h27.39a2.35,2.35,0,0,0,2.38-2.32V382.65A2.35,2.35,0,0,0,319.83,380.33Z" transform="translate(-200 -20)"/>
  <circle style="fill:#0063DC;" cx="8.44" cy="24.03" r="5.5" transform="translate(91 352)"/>
  <circle style="fill:#ff0084;" cx="8.44" cy="24.03" r="5.5" transform="translate(104 352)"/>
</g>
<g><!-- Facebook - Grey -->
  <path class="cls-1" d="M319.26,380.33H291.87a2.35,2.35,0,0,0-2.37,2.32v27.51a2.35,2.35,0,0,0,2.37,2.32h27.39a2.35,2.35,0,0,0,2.38-2.32V382.65A2.35,2.35,0,0,0,319.26,380.33Z" style="fill:#666" transform="translate(-160 -380)"/>
  <path id="f" class="cls-2" d="M311.58,412.5V400.12h4.16l0.61-4.83h-4.77v-3.08c0-1.4.39-2.35,2.39-2.35h2.56v-4.32a34.19,34.19,0,0,0-3.72-.19c-3.68,0-6.22,2.25-6.22,6.38v3.55h-4.16v4.82h4.17V412.5h5Z" style="fill:#fff" transform="translate(-160 -380)"/>
</g>
<g><!-- Twitter - Grey -->
  <path class="cls-1" d="M319.72,380.33H292.32a2.35,2.35,0,0,0-2.37,2.32v27.51a2.35,2.35,0,0,0,2.37,2.32h27.39a2.35,2.35,0,0,0,2.38-2.32V382.65A2.35,2.35,0,0,0,319.72,380.33Z" style="fill:#666;" transform="translate(-160 -340)"/>
  <path class="cls-2" d="M317.9,389a9.74,9.74,0,0,1-2.8.77,4.89,4.89,0,0,0,2.14-2.7,9.75,9.75,0,0,1-3.09,1.18,4.88,4.88,0,0,0-8.3,4.44,13.83,13.83,0,0,1-10-5.09,4.88,4.88,0,0,0,1.51,6.5,4.85,4.85,0,0,1-2.21-.61v0.06a4.88,4.88,0,0,0,3.91,4.78,4.88,4.88,0,0,1-2.2.08,4.88,4.88,0,0,0,4.55,3.38,9.78,9.78,0,0,1-6.05,2.09,9.92,9.92,0,0,1-1.16-.07,13.86,13.86,0,0,0,21.33-11.67q0-.32,0-0.63A9.9,9.9,0,0,0,317.9,389Z" style="fill:#fff;" transform="translate(-160 -340)"/>
</g>
<g><!-- Instagram - Grey -->
  <path class="cls-1" style="fill:#666;" d="M289.72,382.44v27.51a2.35,2.35,0,0,0,2.37,2.32h27.39a2.35,2.35,0,0,0,2.38-2.32V382.44a2.35,2.35,0,0,0-2.34-2.31H292.06A2.34,2.34,0,0,0,289.72,382.44Z" transform="translate(-160 -300)"/>
  <path class="cls-2" style="fill:#fff;" d="M305.79,386.07c3.3,0,3.69,0,5,.07a6.83,6.83,0,0,1,2.29.43,4.09,4.09,0,0,1,2.34,2.34,6.83,6.83,0,0,1,.43,2.29c0.06,1.3.07,1.69,0.07,5s0,3.69-.07,5a6.83,6.83,0,0,1-.43,2.29,4.09,4.09,0,0,1-2.34,2.34,6.83,6.83,0,0,1-2.29.43c-1.3.06-1.69,0.07-5,.07s-3.69,0-5-.07a6.83,6.83,0,0,1-2.29-.43,4.09,4.09,0,0,1-2.34-2.34,6.83,6.83,0,0,1-.43-2.29c-0.06-1.3-.07-1.69-0.07-5s0-3.69.07-5a6.83,6.83,0,0,1,.43-2.29,4.09,4.09,0,0,1,2.34-2.34,6.83,6.83,0,0,1,2.29-.43c1.3-.06,1.69-0.07,5-0.07m0-2.23c-3.35,0-3.77,0-5.09.07a9.06,9.06,0,0,0-3,.57,6.31,6.31,0,0,0-3.61,3.61,9.06,9.06,0,0,0-.57,3c-0.06,1.32-.07,1.74-0.07,5.09s0,3.77.07,5.09a9.06,9.06,0,0,0,.57,3,6.31,6.31,0,0,0,3.61,3.61,9.06,9.06,0,0,0,3,.57c1.32,0.06,1.74.07,5.09,0.07s3.77,0,5.09-.07a9.06,9.06,0,0,0,3-.57,6.31,6.31,0,0,0,3.61-3.61,9.06,9.06,0,0,0,.57-3c0.06-1.32.07-1.74,0.07-5.09s0-3.77-.07-5.09a9.06,9.06,0,0,0-.57-3,6.31,6.31,0,0,0-3.61-3.61,9.06,9.06,0,0,0-3-.57c-1.32-.06-1.74-0.07-5.09-0.07h0Z" transform="translate(-160 -300)"/>
  <path class="cls-2" style="fill:#fff;" d="M305.79,389.86a6.34,6.34,0,1,0,6.34,6.34A6.34,6.34,0,0,0,305.79,389.86Zm0,10.46a4.12,4.12,0,1,1,4.12-4.12A4.12,4.12,0,0,1,305.79,400.32Z" transform="translate(-160 -300)"/>
  <circle class="cls-2" style="fill:#fff;" cx="22.66" cy="9.48" r="1.48" transform="translate(130 80)"/>
</g>
<g><!-- LinkedIn - Grey -->
  <path class="cls-1" style="fill:#666;" d="M319.55,380.32H292.16a2.35,2.35,0,0,0-2.37,2.32v27.51a2.35,2.35,0,0,0,2.37,2.32h27.39a2.35,2.35,0,0,0,2.38-2.32V382.64A2.35,2.35,0,0,0,319.55,380.32Z" transform="translate(-160 -260)"/>
  <path class="cls-2" style="fill:#fff;" d="M294.55,392.37h4.77v15.34h-4.77V392.37Zm2.39-7.63a2.76,2.76,0,1,1-2.77,2.76,2.77,2.77,0,0,1,2.77-2.76" transform="translate(-160 -260)"/>
  <path class="cls-2" style="fill:#fff;" d="M302.32,392.37h4.57v2.1H307a5,5,0,0,1,4.51-2.48c4.83,0,5.72,3.18,5.72,7.31v8.41h-4.77v-7.46c0-1.78,0-4.07-2.48-4.07s-2.86,1.94-2.86,3.94v7.59h-4.76V392.37Z" transform="translate(-160 -260)"/>
</g>
<g><!-- More - Grey -->
  <path style="fill:#666;" class="cls-1" d="M319.69,380.36H292.3a2.35,2.35,0,0,0-2.37,2.32v27.51a2.35,2.35,0,0,0,2.37,2.32h27.39a2.35,2.35,0,0,0,2.38-2.32V382.68A2.35,2.35,0,0,0,319.69,380.36Z" transform="translate(-160 -220)"/>
  <polygon style="fill:#fff;" points="24.07 14.07 18.07 14.07 18.07 8.07 14.07 8.07 14.07 14.07 8.07 14.07 8.07 18.07 14.07 18.07 14.07 24.07 18.07 24.07 18.07 18.07 24.07 18.07 24.07 14.07" transform="translate(130 161)"/>
</g>
<g><!-- Pinterest - Grey -->
  <path class="cls-1" style="fill:#666;" d="M290,382.44v27.51a2.35,2.35,0,0,0,2.37,2.32h27.39a2.35,2.35,0,0,0,2.38-2.32V382.44a2.35,2.35,0,0,0-2.34-2.31H292.3A2.34,2.34,0,0,0,290,382.44Z" transform="translate(-160 -180)"/>
  <path class="cls-2" style="fill:#fff;" d="M306.73,385.36c-6.78,0-10.2,4.86-10.2,8.91,0,2.45.93,4.64,2.92,5.45a0.49,0.49,0,0,0,.71-0.36c0.07-.25.22-0.88,0.29-1.15a0.69,0.69,0,0,0-.21-0.8,4.11,4.11,0,0,1-.94-2.8,6.76,6.76,0,0,1,7-6.83c3.83,0,5.94,2.34,5.94,5.47,0,4.11-1.82,7.59-4.52,7.59a2.21,2.21,0,0,1-2.25-2.75c0.43-1.81,1.26-3.76,1.26-5.06a1.91,1.91,0,0,0-1.92-2.14c-1.53,0-2.75,1.58-2.75,3.69a5.49,5.49,0,0,0,.46,2.26l-1.84,7.78a16,16,0,0,0,0,5.42,0.19,0.19,0,0,0,.34.08,15.23,15.23,0,0,0,2.58-4.67c0.17-.63,1-3.92,1-3.92a4.09,4.09,0,0,0,3.49,1.78c4.59,0,7.7-4.18,7.7-9.78C315.76,389.3,312.17,385.36,306.73,385.36Z" transform="translate(-160 -180)"/>
</g>
<g><!-- RSS - Grey -->
  <path class="cls-1" style="fill:#666;" d="M290,382.41v27.51a2.35,2.35,0,0,0,2.37,2.32h27.39a2.35,2.35,0,0,0,2.38-2.32V382.41a2.35,2.35,0,0,0-2.34-2.31H292.32A2.34,2.34,0,0,0,290,382.41Z" transform="translate(-160 -140)"/>
  <path class="cls-2" style="fill:#fff;" d="M295.45,392.63v4.2a10.26,10.26,0,0,1,10.24,10.27h4.22A14.48,14.48,0,0,0,295.45,392.63Z" transform="translate(-160 -140)"/>
  <path class="cls-2" style="fill:#fff;" d="M295.46,385.19v4.2a17.73,17.73,0,0,1,17.69,17.71h4.21A21.94,21.94,0,0,0,295.46,385.19Z" transform="translate(-160 -140)"/>
  <circle class="cls-2" style="fill:#fff;" cx="8.44" cy="24.03" r="3.07" transform="translate(129.5 240.5)"/>
</g>
<g><!-- Tumblr - Grey -->
  <path class="cls-1" style="fill:#666;" d="M319.42,380.33H292a2.35,2.35,0,0,0-2.37,2.32v27.51a2.35,2.35,0,0,0,2.37,2.32h27.39a2.35,2.35,0,0,0,2.38-2.32V382.65A2.35,2.35,0,0,0,319.42,380.33Z" transform="translate(-160 -100)"/>
  <path class="cls-2" style="fill:url(#lg1)" d="M306.56,385.55v5.11h5.11v3.94h-5.11v5.66a9.64,9.64,0,0,0,.12,2.38,2,2,0,0,0,.84,1,3.2,3.2,0,0,0,1.68.44,6,6,0,0,0,3.34-1.09v3.48a13.26,13.26,0,0,1-2.56.94,11,11,0,0,1-2.48.27,6.77,6.77,0,0,1-2.38-.38,5.81,5.81,0,0,1-2-1.09,4,4,0,0,1-1.14-1.51,6.52,6.52,0,0,1-.32-2.31V394.6h-3v-3.13a7.82,7.82,0,0,0,2.49-1.21,6,6,0,0,0,1.49-1.9,8.54,8.54,0,0,0,.77-2.81h3.14Z" transform="translate(-160 -100)"/>
</g>
<g><!-- YouTube - Grey -->
  <path class="cls-1" style="fill:#666;" d="M319.83,380.33H292.44a2.35,2.35,0,0,0-2.37,2.32v27.51a2.35,2.35,0,0,0,2.37,2.32h27.39a2.35,2.35,0,0,0,2.38-2.32V382.65A2.35,2.35,0,0,0,319.83,380.33Z" transform="translate(-160 -60)"/>
  <path class="cls-2" style="fill:#fff;" d="M311.37,403.58H300.51c-5.1,0-5.94-1.9-5.94-5.86v-4.07c0-4.16,0-5.86,5.94-5.86h10.86c5.72,0,5.94,1.47,5.94,5.86v4.07C317.31,402.47,316,403.58,311.37,403.58Z" transform="translate(-160 -60)"/>
  <polygon class="cls-3" style="fill:#666;" points="13.55 12.06 19.68 15.24 13.55 18.45 13.55 12.06" transform="translate(130 321)"/>
  <polygon class="cls-4" style="fill:#444;" points="18.93 15.64 13.55 12.06 19.68 15.24 18.93 15.64" transform="translate(130 321)"/>
</g>
<g><!-- Flickr - Grey -->
  <path style="fill:#666;" d="M319.83,380.33H292.44a2.35,2.35,0,0,0-2.37,2.32v27.51a2.35,2.35,0,0,0,2.37,2.32h27.39a2.35,2.35,0,0,0,2.38-2.32V382.65A2.35,2.35,0,0,0,319.83,380.33Z" transform="translate(-160 -20)"/>
  <circle style="fill:#fff;" cx="8.44" cy="24.03" r="5.5" transform="translate(131 352)"/>
  <circle style="fill:#fff;" cx="8.44" cy="24.03" r="5.5" transform="translate(144 352)"/>
</g>
</svg>
